<?xml version="1.0" standalone="no"?>
<svg xmlns="http://www.w3.org/2000/svg" version="1.1" width="348" height="348">
	<!-- Created with https://api.qrserver.com (QR Code API, see goQR.me/api for information) -->
	<title>QR Code</title>
	<desc>0xF15C6Cc6Da0eF64ee329A88402A2fEAC06e33998</desc>
	<rect style="fill:rgb(255, 255, 255);fill-opacity:1" x="0" y="0" width="348" height="348" />
	<g id="elements">
		<path style="fill:rgb(0, 0, 0)" d="M 0,0 l 12,0 0,12 -12,0 z M 12,0 l 12,0 0,12 -12,0 z M 24,0 l 12,0 0,12 -12,0 z M 36,0 l 12,0 0,12 -12,0 z M 48,0 l 12,0 0,12 -12,0 z M 60,0 l 12,0 0,12 -12,0 z M 72,0 l 12,0 0,12 -12,0 z M 108,0 l 12,0 0,12 -12,0 z M 192,0 l 12,0 0,12 -12,0 z M 204,0 l 12,0 0,12 -12,0 z M 216,0 l 12,0 0,12 -12,0 z M 264,0 l 12,0 0,12 -12,0 z M 276,0 l 12,0 0,12 -12,0 z M 288,0 l 12,0 0,12 -12,0 z M 300,0 l 12,0 0,12 -12,0 z M 312,0 l 12,0 0,12 -12,0 z M 324,0 l 12,0 0,12 -12,0 z M 336,0 l 12,0 0,12 -12,0 z M 0,12 l 12,0 0,12 -12,0 z M 72,12 l 12,0 0,12 -12,0 z M 96,12 l 12,0 0,12 -12,0 z M 108,12 l 12,0 0,12 -12,0 z M 132,12 l 12,0 0,12 -12,0 z M 144,12 l 12,0 0,12 -12,0 z M 180,12 l 12,0 0,12 -12,0 z M 204,12 l 12,0 0,12 -12,0 z M 228,12 l 12,0 0,12 -12,0 z M 264,12 l 12,0 0,12 -12,0 z M 336,12 l 12,0 0,12 -12,0 z M 0,24 l 12,0 0,12 -12,0 z M 24,24 l 12,0 0,12 -12,0 z M 36,24 l 12,0 0,12 -12,0 z M 48,24 l 12,0 0,12 -12,0 z M 72,24 l 12,0 0,12 -12,0 z M 108,24 l 12,0 0,12 -12,0 z M 120,24 l 12,0 0,12 -12,0 z M 132,24 l 12,0 0,12 -12,0 z M 192,24 l 12,0 0,12 -12,0 z M 216,24 l 12,0 0,12 -12,0 z M 240,24 l 12,0 0,12 -12,0 z M 264,24 l 12,0 0,12 -12,0 z M 288,24 l 12,0 0,12 -12,0 z M 300,24 l 12,0 0,12 -12,0 z M 312,24 l 12,0 0,12 -12,0 z M 336,24 l 12,0 0,12 -12,0 z M 0,36 l 12,0 0,12 -12,0 z M 24,36 l 12,0 0,12 -12,0 z M 36,36 l 12,0 0,12 -12,0 z M 48,36 l 12,0 0,12 -12,0 z M 72,36 l 12,0 0,12 -12,0 z M 96,36 l 12,0 0,12 -12,0 z M 108,36 l 12,0 0,12 -12,0 z M 132,36 l 12,0 0,12 -12,0 z M 156,36 l 12,0 0,12 -12,0 z M 168,36 l 12,0 0,12 -12,0 z M 180,36 l 12,0 0,12 -12,0 z M 228,36 l 12,0 0,12 -12,0 z M 264,36 l 12,0 0,12 -12,0 z M 288,36 l 12,0 0,12 -12,0 z M 300,36 l 12,0 0,12 -12,0 z M 312,36 l 12,0 0,12 -12,0 z M 336,36 l 12,0 0,12 -12,0 z M 0,48 l 12,0 0,12 -12,0 z M 24,48 l 12,0 0,12 -12,0 z M 36,48 l 12,0 0,12 -12,0 z M 48,48 l 12,0 0,12 -12,0 z M 72,48 l 12,0 0,12 -12,0 z M 120,48 l 12,0 0,12 -12,0 z M 144,48 l 12,0 0,12 -12,0 z M 156,48 l 12,0 0,12 -12,0 z M 180,48 l 12,0 0,12 -12,0 z M 204,48 l 12,0 0,12 -12,0 z M 216,48 l 12,0 0,12 -12,0 z M 240,48 l 12,0 0,12 -12,0 z M 264,48 l 12,0 0,12 -12,0 z M 288,48 l 12,0 0,12 -12,0 z M 300,48 l 12,0 0,12 -12,0 z M 312,48 l 12,0 0,12 -12,0 z M 336,48 l 12,0 0,12 -12,0 z M 0,60 l 12,0 0,12 -12,0 z M 72,60 l 12,0 0,12 -12,0 z M 96,60 l 12,0 0,12 -12,0 z M 120,60 l 12,0 0,12 -12,0 z M 168,60 l 12,0 0,12 -12,0 z M 216,60 l 12,0 0,12 -12,0 z M 228,60 l 12,0 0,12 -12,0 z M 264,60 l 12,0 0,12 -12,0 z M 336,60 l 12,0 0,12 -12,0 z M 0,72 l 12,0 0,12 -12,0 z M 12,72 l 12,0 0,12 -12,0 z M 24,72 l 12,0 0,12 -12,0 z M 36,72 l 12,0 0,12 -12,0 z M 48,72 l 12,0 0,12 -12,0 z M 60,72 l 12,0 0,12 -12,0 z M 72,72 l 12,0 0,12 -12,0 z M 96,72 l 12,0 0,12 -12,0 z M 120,72 l 12,0 0,12 -12,0 z M 144,72 l 12,0 0,12 -12,0 z M 168,72 l 12,0 0,12 -12,0 z M 192,72 l 12,0 0,12 -12,0 z M 216,72 l 12,0 0,12 -12,0 z M 240,72 l 12,0 0,12 -12,0 z M 264,72 l 12,0 0,12 -12,0 z M 276,72 l 12,0 0,12 -12,0 z M 288,72 l 12,0 0,12 -12,0 z M 300,72 l 12,0 0,12 -12,0 z M 312,72 l 12,0 0,12 -12,0 z M 324,72 l 12,0 0,12 -12,0 z M 336,72 l 12,0 0,12 -12,0 z M 144,84 l 12,0 0,12 -12,0 z M 156,84 l 12,0 0,12 -12,0 z M 216,84 l 12,0 0,12 -12,0 z M 240,84 l 12,0 0,12 -12,0 z M 0,96 l 12,0 0,12 -12,0 z M 12,96 l 12,0 0,12 -12,0 z M 24,96 l 12,0 0,12 -12,0 z M 36,96 l 12,0 0,12 -12,0 z M 48,96 l 12,0 0,12 -12,0 z M 72,96 l 12,0 0,12 -12,0 z M 84,96 l 12,0 0,12 -12,0 z M 96,96 l 12,0 0,12 -12,0 z M 108,96 l 12,0 0,12 -12,0 z M 120,96 l 12,0 0,12 -12,0 z M 144,96 l 12,0 0,12 -12,0 z M 168,96 l 12,0 0,12 -12,0 z M 180,96 l 12,0 0,12 -12,0 z M 216,96 l 12,0 0,12 -12,0 z M 228,96 l 12,0 0,12 -12,0 z M 252,96 l 12,0 0,12 -12,0 z M 276,96 l 12,0 0,12 -12,0 z M 300,96 l 12,0 0,12 -12,0 z M 324,96 l 12,0 0,12 -12,0 z M 0,108 l 12,0 0,12 -12,0 z M 36,108 l 12,0 0,12 -12,0 z M 60,108 l 12,0 0,12 -12,0 z M 108,108 l 12,0 0,12 -12,0 z M 156,108 l 12,0 0,12 -12,0 z M 180,108 l 12,0 0,12 -12,0 z M 240,108 l 12,0 0,12 -12,0 z M 288,108 l 12,0 0,12 -12,0 z M 336,108 l 12,0 0,12 -12,0 z M 0,120 l 12,0 0,12 -12,0 z M 36,120 l 12,0 0,12 -12,0 z M 72,120 l 12,0 0,12 -12,0 z M 96,120 l 12,0 0,12 -12,0 z M 108,120 l 12,0 0,12 -12,0 z M 132,120 l 12,0 0,12 -12,0 z M 144,120 l 12,0 0,12 -12,0 z M 156,120 l 12,0 0,12 -12,0 z M 216,120 l 12,0 0,12 -12,0 z M 240,120 l 12,0 0,12 -12,0 z M 252,120 l 12,0 0,12 -12,0 z M 264,120 l 12,0 0,12 -12,0 z M 276,120 l 12,0 0,12 -12,0 z M 288,120 l 12,0 0,12 -12,0 z M 312,120 l 12,0 0,12 -12,0 z M 324,120 l 12,0 0,12 -12,0 z M 0,132 l 12,0 0,12 -12,0 z M 12,132 l 12,0 0,12 -12,0 z M 24,132 l 12,0 0,12 -12,0 z M 36,132 l 12,0 0,12 -12,0 z M 96,132 l 12,0 0,12 -12,0 z M 108,132 l 12,0 0,12 -12,0 z M 120,132 l 12,0 0,12 -12,0 z M 132,132 l 12,0 0,12 -12,0 z M 216,132 l 12,0 0,12 -12,0 z M 252,132 l 12,0 0,12 -12,0 z M 288,132 l 12,0 0,12 -12,0 z M 312,132 l 12,0 0,12 -12,0 z M 324,132 l 12,0 0,12 -12,0 z M 0,144 l 12,0 0,12 -12,0 z M 12,144 l 12,0 0,12 -12,0 z M 60,144 l 12,0 0,12 -12,0 z M 72,144 l 12,0 0,12 -12,0 z M 96,144 l 12,0 0,12 -12,0 z M 108,144 l 12,0 0,12 -12,0 z M 132,144 l 12,0 0,12 -12,0 z M 156,144 l 12,0 0,12 -12,0 z M 204,144 l 12,0 0,12 -12,0 z M 228,144 l 12,0 0,12 -12,0 z M 240,144 l 12,0 0,12 -12,0 z M 276,144 l 12,0 0,12 -12,0 z M 288,144 l 12,0 0,12 -12,0 z M 312,144 l 12,0 0,12 -12,0 z M 324,144 l 12,0 0,12 -12,0 z M 0,156 l 12,0 0,12 -12,0 z M 48,156 l 12,0 0,12 -12,0 z M 96,156 l 12,0 0,12 -12,0 z M 120,156 l 12,0 0,12 -12,0 z M 144,156 l 12,0 0,12 -12,0 z M 180,156 l 12,0 0,12 -12,0 z M 240,156 l 12,0 0,12 -12,0 z M 252,156 l 12,0 0,12 -12,0 z M 300,156 l 12,0 0,12 -12,0 z M 324,156 l 12,0 0,12 -12,0 z M 336,156 l 12,0 0,12 -12,0 z M 0,168 l 12,0 0,12 -12,0 z M 12,168 l 12,0 0,12 -12,0 z M 48,168 l 12,0 0,12 -12,0 z M 60,168 l 12,0 0,12 -12,0 z M 72,168 l 12,0 0,12 -12,0 z M 84,168 l 12,0 0,12 -12,0 z M 96,168 l 12,0 0,12 -12,0 z M 108,168 l 12,0 0,12 -12,0 z M 204,168 l 12,0 0,12 -12,0 z M 216,168 l 12,0 0,12 -12,0 z M 240,168 l 12,0 0,12 -12,0 z M 264,168 l 12,0 0,12 -12,0 z M 276,168 l 12,0 0,12 -12,0 z M 288,168 l 12,0 0,12 -12,0 z M 324,168 l 12,0 0,12 -12,0 z M 36,180 l 12,0 0,12 -12,0 z M 84,180 l 12,0 0,12 -12,0 z M 108,180 l 12,0 0,12 -12,0 z M 120,180 l 12,0 0,12 -12,0 z M 144,180 l 12,0 0,12 -12,0 z M 180,180 l 12,0 0,12 -12,0 z M 192,180 l 12,0 0,12 -12,0 z M 204,180 l 12,0 0,12 -12,0 z M 216,180 l 12,0 0,12 -12,0 z M 252,180 l 12,0 0,12 -12,0 z M 276,180 l 12,0 0,12 -12,0 z M 324,180 l 12,0 0,12 -12,0 z M 12,192 l 12,0 0,12 -12,0 z M 72,192 l 12,0 0,12 -12,0 z M 96,192 l 12,0 0,12 -12,0 z M 144,192 l 12,0 0,12 -12,0 z M 156,192 l 12,0 0,12 -12,0 z M 216,192 l 12,0 0,12 -12,0 z M 228,192 l 12,0 0,12 -12,0 z M 240,192 l 12,0 0,12 -12,0 z M 252,192 l 12,0 0,12 -12,0 z M 288,192 l 12,0 0,12 -12,0 z M 300,192 l 12,0 0,12 -12,0 z M 324,192 l 12,0 0,12 -12,0 z M 336,192 l 12,0 0,12 -12,0 z M 0,204 l 12,0 0,12 -12,0 z M 24,204 l 12,0 0,12 -12,0 z M 36,204 l 12,0 0,12 -12,0 z M 84,204 l 12,0 0,12 -12,0 z M 96,204 l 12,0 0,12 -12,0 z M 108,204 l 12,0 0,12 -12,0 z M 120,204 l 12,0 0,12 -12,0 z M 156,204 l 12,0 0,12 -12,0 z M 180,204 l 12,0 0,12 -12,0 z M 192,204 l 12,0 0,12 -12,0 z M 204,204 l 12,0 0,12 -12,0 z M 216,204 l 12,0 0,12 -12,0 z M 276,204 l 12,0 0,12 -12,0 z M 300,204 l 12,0 0,12 -12,0 z M 312,204 l 12,0 0,12 -12,0 z M 336,204 l 12,0 0,12 -12,0 z M 0,216 l 12,0 0,12 -12,0 z M 24,216 l 12,0 0,12 -12,0 z M 60,216 l 12,0 0,12 -12,0 z M 72,216 l 12,0 0,12 -12,0 z M 84,216 l 12,0 0,12 -12,0 z M 96,216 l 12,0 0,12 -12,0 z M 108,216 l 12,0 0,12 -12,0 z M 120,216 l 12,0 0,12 -12,0 z M 132,216 l 12,0 0,12 -12,0 z M 144,216 l 12,0 0,12 -12,0 z M 156,216 l 12,0 0,12 -12,0 z M 204,216 l 12,0 0,12 -12,0 z M 216,216 l 12,0 0,12 -12,0 z M 240,216 l 12,0 0,12 -12,0 z M 252,216 l 12,0 0,12 -12,0 z M 264,216 l 12,0 0,12 -12,0 z M 288,216 l 12,0 0,12 -12,0 z M 300,216 l 12,0 0,12 -12,0 z M 0,228 l 12,0 0,12 -12,0 z M 24,228 l 12,0 0,12 -12,0 z M 36,228 l 12,0 0,12 -12,0 z M 60,228 l 12,0 0,12 -12,0 z M 84,228 l 12,0 0,12 -12,0 z M 108,228 l 12,0 0,12 -12,0 z M 132,228 l 12,0 0,12 -12,0 z M 156,228 l 12,0 0,12 -12,0 z M 192,228 l 12,0 0,12 -12,0 z M 240,228 l 12,0 0,12 -12,0 z M 312,228 l 12,0 0,12 -12,0 z M 324,228 l 12,0 0,12 -12,0 z M 0,240 l 12,0 0,12 -12,0 z M 24,240 l 12,0 0,12 -12,0 z M 36,240 l 12,0 0,12 -12,0 z M 60,240 l 12,0 0,12 -12,0 z M 72,240 l 12,0 0,12 -12,0 z M 96,240 l 12,0 0,12 -12,0 z M 120,240 l 12,0 0,12 -12,0 z M 132,240 l 12,0 0,12 -12,0 z M 156,240 l 12,0 0,12 -12,0 z M 204,240 l 12,0 0,12 -12,0 z M 228,240 l 12,0 0,12 -12,0 z M 240,240 l 12,0 0,12 -12,0 z M 252,240 l 12,0 0,12 -12,0 z M 264,240 l 12,0 0,12 -12,0 z M 276,240 l 12,0 0,12 -12,0 z M 288,240 l 12,0 0,12 -12,0 z M 312,240 l 12,0 0,12 -12,0 z M 324,240 l 12,0 0,12 -12,0 z M 96,252 l 12,0 0,12 -12,0 z M 144,252 l 12,0 0,12 -12,0 z M 180,252 l 12,0 0,12 -12,0 z M 216,252 l 12,0 0,12 -12,0 z M 240,252 l 12,0 0,12 -12,0 z M 288,252 l 12,0 0,12 -12,0 z M 300,252 l 12,0 0,12 -12,0 z M 336,252 l 12,0 0,12 -12,0 z M 0,264 l 12,0 0,12 -12,0 z M 12,264 l 12,0 0,12 -12,0 z M 24,264 l 12,0 0,12 -12,0 z M 36,264 l 12,0 0,12 -12,0 z M 48,264 l 12,0 0,12 -12,0 z M 60,264 l 12,0 0,12 -12,0 z M 72,264 l 12,0 0,12 -12,0 z M 96,264 l 12,0 0,12 -12,0 z M 156,264 l 12,0 0,12 -12,0 z M 168,264 l 12,0 0,12 -12,0 z M 180,264 l 12,0 0,12 -12,0 z M 216,264 l 12,0 0,12 -12,0 z M 240,264 l 12,0 0,12 -12,0 z M 264,264 l 12,0 0,12 -12,0 z M 288,264 l 12,0 0,12 -12,0 z M 324,264 l 12,0 0,12 -12,0 z M 0,276 l 12,0 0,12 -12,0 z M 72,276 l 12,0 0,12 -12,0 z M 144,276 l 12,0 0,12 -12,0 z M 156,276 l 12,0 0,12 -12,0 z M 168,276 l 12,0 0,12 -12,0 z M 180,276 l 12,0 0,12 -12,0 z M 216,276 l 12,0 0,12 -12,0 z M 240,276 l 12,0 0,12 -12,0 z M 288,276 l 12,0 0,12 -12,0 z M 300,276 l 12,0 0,12 -12,0 z M 324,276 l 12,0 0,12 -12,0 z M 336,276 l 12,0 0,12 -12,0 z M 0,288 l 12,0 0,12 -12,0 z M 24,288 l 12,0 0,12 -12,0 z M 36,288 l 12,0 0,12 -12,0 z M 48,288 l 12,0 0,12 -12,0 z M 72,288 l 12,0 0,12 -12,0 z M 96,288 l 12,0 0,12 -12,0 z M 144,288 l 12,0 0,12 -12,0 z M 216,288 l 12,0 0,12 -12,0 z M 228,288 l 12,0 0,12 -12,0 z M 240,288 l 12,0 0,12 -12,0 z M 252,288 l 12,0 0,12 -12,0 z M 264,288 l 12,0 0,12 -12,0 z M 276,288 l 12,0 0,12 -12,0 z M 288,288 l 12,0 0,12 -12,0 z M 312,288 l 12,0 0,12 -12,0 z M 324,288 l 12,0 0,12 -12,0 z M 0,300 l 12,0 0,12 -12,0 z M 24,300 l 12,0 0,12 -12,0 z M 36,300 l 12,0 0,12 -12,0 z M 48,300 l 12,0 0,12 -12,0 z M 72,300 l 12,0 0,12 -12,0 z M 96,300 l 12,0 0,12 -12,0 z M 156,300 l 12,0 0,12 -12,0 z M 180,300 l 12,0 0,12 -12,0 z M 216,300 l 12,0 0,12 -12,0 z M 228,300 l 12,0 0,12 -12,0 z M 276,300 l 12,0 0,12 -12,0 z M 288,300 l 12,0 0,12 -12,0 z M 312,300 l 12,0 0,12 -12,0 z M 324,300 l 12,0 0,12 -12,0 z M 0,312 l 12,0 0,12 -12,0 z M 24,312 l 12,0 0,12 -12,0 z M 36,312 l 12,0 0,12 -12,0 z M 48,312 l 12,0 0,12 -12,0 z M 72,312 l 12,0 0,12 -12,0 z M 96,312 l 12,0 0,12 -12,0 z M 132,312 l 12,0 0,12 -12,0 z M 144,312 l 12,0 0,12 -12,0 z M 204,312 l 12,0 0,12 -12,0 z M 216,312 l 12,0 0,12 -12,0 z M 228,312 l 12,0 0,12 -12,0 z M 240,312 l 12,0 0,12 -12,0 z M 300,312 l 12,0 0,12 -12,0 z M 324,312 l 12,0 0,12 -12,0 z M 0,324 l 12,0 0,12 -12,0 z M 72,324 l 12,0 0,12 -12,0 z M 96,324 l 12,0 0,12 -12,0 z M 108,324 l 12,0 0,12 -12,0 z M 132,324 l 12,0 0,12 -12,0 z M 180,324 l 12,0 0,12 -12,0 z M 216,324 l 12,0 0,12 -12,0 z M 252,324 l 12,0 0,12 -12,0 z M 276,324 l 12,0 0,12 -12,0 z M 324,324 l 12,0 0,12 -12,0 z M 0,336 l 12,0 0,12 -12,0 z M 12,336 l 12,0 0,12 -12,0 z M 24,336 l 12,0 0,12 -12,0 z M 36,336 l 12,0 0,12 -12,0 z M 48,336 l 12,0 0,12 -12,0 z M 60,336 l 12,0 0,12 -12,0 z M 72,336 l 12,0 0,12 -12,0 z M 96,336 l 12,0 0,12 -12,0 z M 132,336 l 12,0 0,12 -12,0 z M 144,336 l 12,0 0,12 -12,0 z M 192,336 l 12,0 0,12 -12,0 z M 204,336 l 12,0 0,12 -12,0 z M 216,336 l 12,0 0,12 -12,0 z M 240,336 l 12,0 0,12 -12,0 z M 288,336 l 12,0 0,12 -12,0 z " />
	</g>
</svg>
