<svg width="900" height="620" viewBox="0 0 900 620" fill="none" xmlns="http://www.w3.org/2000/svg">
  <defs>
    <linearGradient id="bg" x1="110" y1="80" x2="820" y2="570" gradientUnits="userSpaceOnUse">
      <stop stop-color="#0f1720"/>
      <stop offset="1" stop-color="#0a0f15"/>
    </linearGradient>
    <linearGradient id="line" x1="140" y1="180" x2="780" y2="180" gradientUnits="userSpaceOnUse">
      <stop stop-color="#00d0b2"/>
      <stop offset="1" stop-color="#40f2d4"/>
    </linearGradient>
    <radialGradient id="glow" cx="0" cy="0" r="1" gradientUnits="userSpaceOnUse" gradientTransform="translate(668 370) rotate(121.59) scale(380 508)">
      <stop stop-color="#00d0b2" stop-opacity="0.28"/>
      <stop offset="1" stop-color="#00d0b2" stop-opacity="0"/>
    </radialGradient>
    <filter id="soft" x="0" y="0" width="900" height="620" filterUnits="userSpaceOnUse" color-interpolation-filters="sRGB">
      <feGaussianBlur stdDeviation="22"/>
    </filter>
  </defs>

  <rect x="100" y="60" width="700" height="500" rx="24" fill="url(#bg)" stroke="#1e2a38" stroke-width="2"/>
  <rect x="130" y="95" width="640" height="36" rx="10" fill="#0d141d" stroke="#223042"/>
  <circle cx="155" cy="113" r="6" fill="#33485f"/>
  <circle cx="178" cy="113" r="6" fill="#33485f"/>
  <circle cx="201" cy="113" r="6" fill="#33485f"/>

  <rect x="130" y="154" width="238" height="182" rx="16" fill="#0d141d" stroke="#223042"/>
  <text x="154" y="187" fill="#8da4bc" font-size="15" font-family="Space Grotesk, Arial, sans-serif">TOTAL PORTFOLIO VALUE</text>
  <text x="154" y="228" fill="#f4fbff" font-size="38" font-weight="700" font-family="Space Grotesk, Arial, sans-serif">$128,420</text>
  <text x="154" y="262" fill="#40f2d4" font-size="16" font-family="IBM Plex Mono, monospace">ROI +34.56%</text>
  <text x="154" y="288" fill="#98abc0" font-size="14" font-family="IBM Plex Mono, monospace">P&amp;L +$33,028</text>

  <rect x="388" y="154" width="382" height="182" rx="16" fill="#0d141d" stroke="#223042"/>
  <path d="M420 280 L500 246 L556 256 L628 208 L740 188" stroke="url(#line)" stroke-width="4" stroke-linecap="round"/>
  <circle cx="420" cy="280" r="6" fill="#00d0b2"/>
  <circle cx="500" cy="246" r="6" fill="#00d0b2"/>
  <circle cx="556" cy="256" r="6" fill="#00d0b2"/>
  <circle cx="628" cy="208" r="6" fill="#00d0b2"/>
  <circle cx="740" cy="188" r="6" fill="#00d0b2"/>
  <text x="420" y="188" fill="#8da4bc" font-size="15" font-family="Space Grotesk, Arial, sans-serif">Cross-chain transaction metrics</text>

  <rect x="130" y="354" width="306" height="174" rx="16" fill="#0d141d" stroke="#223042"/>
  <text x="154" y="388" fill="#8da4bc" font-size="15" font-family="Space Grotesk, Arial, sans-serif">AUTOMATION</text>
  <rect x="154" y="407" width="258" height="30" rx="10" fill="#111d2a"/>
  <text x="170" y="427" fill="#c3d4e4" font-size="13" font-family="IBM Plex Mono, monospace">Wallet: 0xA7...9D3</text>
  <rect x="154" y="447" width="118" height="30" rx="10" fill="#111d2a"/>
  <text x="170" y="467" fill="#c3d4e4" font-size="13" font-family="IBM Plex Mono, monospace">Every day</text>
  <rect x="294" y="447" width="118" height="30" rx="10" fill="#111d2a"/>
  <text x="322" y="467" fill="#c3d4e4" font-size="13" font-family="IBM Plex Mono, monospace">12:00</text>

  <rect x="456" y="354" width="314" height="174" rx="16" fill="#0d141d" stroke="#223042"/>
  <text x="480" y="388" fill="#8da4bc" font-size="15" font-family="Space Grotesk, Arial, sans-serif">MASTER DASHBOARD</text>
  <rect x="480" y="407" width="266" height="96" rx="12" fill="#111d2a"/>
  <text x="500" y="432" fill="#c3d4e4" font-size="13" font-family="IBM Plex Mono, monospace">Wallet Main    $52,140</text>
  <text x="500" y="458" fill="#c3d4e4" font-size="13" font-family="IBM Plex Mono, monospace">Wallet Delta   $38,920</text>
  <text x="500" y="484" fill="#c3d4e4" font-size="13" font-family="IBM Plex Mono, monospace">Wallet Labs    $37,360</text>

  <g filter="url(#soft)">
    <ellipse cx="670" cy="390" rx="180" ry="140" fill="url(#glow)"/>
  </g>
</svg>
